<mxfile host="app.diagrams.net" modified="2021-02-03T10:18:10.105Z" agent="5.0 (Windows)" etag="mQAfUrwk5vXlpXUXlZyG" version="14.2.9" type="github">
  <diagram id="C5RBs43oDa-KdzZeNtuy" name="Page-1">
    <mxGraphModel dx="1422" dy="763" grid="1" gridSize="10" guides="1" tooltips="1" connect="1" arrows="1" fold="1" page="1" pageScale="1" pageWidth="827" pageHeight="1169" math="0" shadow="0">
      <root>
        <mxCell id="WIyWlLk6GJQsqaUBKTNV-0" />
        <mxCell id="WIyWlLk6GJQsqaUBKTNV-1" parent="WIyWlLk6GJQsqaUBKTNV-0" />
        <mxCell id="WIyWlLk6GJQsqaUBKTNV-2" value="" style="rounded=0;html=1;jettySize=auto;orthogonalLoop=1;fontSize=11;endArrow=block;endFill=0;endSize=8;strokeWidth=1;shadow=0;labelBackgroundColor=none;edgeStyle=orthogonalEdgeStyle;" parent="WIyWlLk6GJQsqaUBKTNV-1" source="WIyWlLk6GJQsqaUBKTNV-3" edge="1">
          <mxGeometry relative="1" as="geometry">
            <mxPoint x="220" y="140" as="targetPoint" />
          </mxGeometry>
        </mxCell>
        <mxCell id="WIyWlLk6GJQsqaUBKTNV-3" value="开始" style="rounded=1;whiteSpace=wrap;html=1;fontSize=12;glass=0;strokeWidth=1;shadow=0;" parent="WIyWlLk6GJQsqaUBKTNV-1" vertex="1">
          <mxGeometry x="160" y="60" width="120" height="40" as="geometry" />
        </mxCell>
        <mxCell id="nzWNdacZB_GUiVWyVEk8-4" style="edgeStyle=orthogonalEdgeStyle;rounded=0;orthogonalLoop=1;jettySize=auto;html=1;entryX=0.5;entryY=0;entryDx=0;entryDy=0;" edge="1" parent="WIyWlLk6GJQsqaUBKTNV-1" source="nzWNdacZB_GUiVWyVEk8-0" target="nzWNdacZB_GUiVWyVEk8-1">
          <mxGeometry relative="1" as="geometry" />
        </mxCell>
        <mxCell id="nzWNdacZB_GUiVWyVEk8-0" value="从成分基金中剥离出资产大类信息" style="rounded=0;whiteSpace=wrap;html=1;" vertex="1" parent="WIyWlLk6GJQsqaUBKTNV-1">
          <mxGeometry x="160" y="140" width="120" height="40" as="geometry" />
        </mxCell>
        <mxCell id="nzWNdacZB_GUiVWyVEk8-5" style="edgeStyle=orthogonalEdgeStyle;rounded=0;orthogonalLoop=1;jettySize=auto;html=1;exitX=0.5;exitY=1;exitDx=0;exitDy=0;" edge="1" parent="WIyWlLk6GJQsqaUBKTNV-1" source="nzWNdacZB_GUiVWyVEk8-1">
          <mxGeometry relative="1" as="geometry">
            <mxPoint x="220" y="350" as="targetPoint" />
          </mxGeometry>
        </mxCell>
        <mxCell id="nzWNdacZB_GUiVWyVEk8-44" style="edgeStyle=orthogonalEdgeStyle;rounded=0;orthogonalLoop=1;jettySize=auto;html=1;" edge="1" parent="WIyWlLk6GJQsqaUBKTNV-1" source="nzWNdacZB_GUiVWyVEk8-1">
          <mxGeometry relative="1" as="geometry">
            <mxPoint x="400" y="260" as="targetPoint" />
          </mxGeometry>
        </mxCell>
        <mxCell id="nzWNdacZB_GUiVWyVEk8-1" value="买入开关是否打开" style="rhombus;whiteSpace=wrap;html=1;" vertex="1" parent="WIyWlLk6GJQsqaUBKTNV-1">
          <mxGeometry x="165" y="210" width="110" height="100" as="geometry" />
        </mxCell>
        <mxCell id="nzWNdacZB_GUiVWyVEk8-7" style="edgeStyle=orthogonalEdgeStyle;rounded=0;orthogonalLoop=1;jettySize=auto;html=1;exitX=0.5;exitY=1;exitDx=0;exitDy=0;" edge="1" parent="WIyWlLk6GJQsqaUBKTNV-1" source="nzWNdacZB_GUiVWyVEk8-6">
          <mxGeometry relative="1" as="geometry">
            <mxPoint x="220" y="480" as="targetPoint" />
          </mxGeometry>
        </mxCell>
        <mxCell id="nzWNdacZB_GUiVWyVEk8-43" style="edgeStyle=orthogonalEdgeStyle;rounded=0;orthogonalLoop=1;jettySize=auto;html=1;exitX=1;exitY=0.5;exitDx=0;exitDy=0;" edge="1" parent="WIyWlLk6GJQsqaUBKTNV-1" source="nzWNdacZB_GUiVWyVEk8-6">
          <mxGeometry relative="1" as="geometry">
            <mxPoint x="400" y="400" as="targetPoint" />
            <Array as="points">
              <mxPoint x="370" y="400" />
              <mxPoint x="370" y="400" />
            </Array>
          </mxGeometry>
        </mxCell>
        <mxCell id="nzWNdacZB_GUiVWyVEk8-6" value="持仓账本是否为空" style="rhombus;whiteSpace=wrap;html=1;" vertex="1" parent="WIyWlLk6GJQsqaUBKTNV-1">
          <mxGeometry x="160" y="350" width="120" height="100" as="geometry" />
        </mxCell>
        <mxCell id="nzWNdacZB_GUiVWyVEk8-10" style="edgeStyle=orthogonalEdgeStyle;rounded=0;orthogonalLoop=1;jettySize=auto;html=1;exitX=0.5;exitY=1;exitDx=0;exitDy=0;" edge="1" parent="WIyWlLk6GJQsqaUBKTNV-1" source="nzWNdacZB_GUiVWyVEk8-8">
          <mxGeometry relative="1" as="geometry">
            <mxPoint x="223" y="620" as="targetPoint" />
          </mxGeometry>
        </mxCell>
        <mxCell id="nzWNdacZB_GUiVWyVEk8-45" style="edgeStyle=orthogonalEdgeStyle;rounded=0;orthogonalLoop=1;jettySize=auto;html=1;exitX=1;exitY=0.5;exitDx=0;exitDy=0;" edge="1" parent="WIyWlLk6GJQsqaUBKTNV-1" source="nzWNdacZB_GUiVWyVEk8-8">
          <mxGeometry relative="1" as="geometry">
            <mxPoint x="400" y="530" as="targetPoint" />
          </mxGeometry>
        </mxCell>
        <mxCell id="nzWNdacZB_GUiVWyVEk8-8" value="&lt;div&gt;是否是特殊&lt;/div&gt;&lt;div&gt;协议类型持仓&lt;/div&gt;" style="rhombus;whiteSpace=wrap;html=1;" vertex="1" parent="WIyWlLk6GJQsqaUBKTNV-1">
          <mxGeometry x="160" y="480" width="125" height="100" as="geometry" />
        </mxCell>
        <mxCell id="nzWNdacZB_GUiVWyVEk8-12" style="edgeStyle=orthogonalEdgeStyle;rounded=0;orthogonalLoop=1;jettySize=auto;html=1;" edge="1" parent="WIyWlLk6GJQsqaUBKTNV-1" source="nzWNdacZB_GUiVWyVEk8-11">
          <mxGeometry relative="1" as="geometry">
            <mxPoint x="222.5" y="710" as="targetPoint" />
          </mxGeometry>
        </mxCell>
        <mxCell id="nzWNdacZB_GUiVWyVEk8-11" value="&lt;div&gt;计算各资产大类&lt;/div&gt;&lt;div&gt;已有的持仓&lt;/div&gt;" style="rounded=0;whiteSpace=wrap;html=1;" vertex="1" parent="WIyWlLk6GJQsqaUBKTNV-1">
          <mxGeometry x="162.5" y="620" width="120" height="50" as="geometry" />
        </mxCell>
        <mxCell id="nzWNdacZB_GUiVWyVEk8-17" style="edgeStyle=orthogonalEdgeStyle;rounded=0;orthogonalLoop=1;jettySize=auto;html=1;exitX=0.5;exitY=1;exitDx=0;exitDy=0;" edge="1" parent="WIyWlLk6GJQsqaUBKTNV-1" source="nzWNdacZB_GUiVWyVEk8-13">
          <mxGeometry relative="1" as="geometry">
            <mxPoint x="225" y="900" as="targetPoint" />
          </mxGeometry>
        </mxCell>
        <mxCell id="nzWNdacZB_GUiVWyVEk8-13" value="计算各个资产大类的目标持仓和市值差" style="rounded=0;whiteSpace=wrap;html=1;" vertex="1" parent="WIyWlLk6GJQsqaUBKTNV-1">
          <mxGeometry x="165" y="800" width="120" height="60" as="geometry" />
        </mxCell>
        <mxCell id="nzWNdacZB_GUiVWyVEk8-15" style="edgeStyle=orthogonalEdgeStyle;rounded=0;orthogonalLoop=1;jettySize=auto;html=1;" edge="1" parent="WIyWlLk6GJQsqaUBKTNV-1" source="nzWNdacZB_GUiVWyVEk8-14">
          <mxGeometry relative="1" as="geometry">
            <mxPoint x="222.5" y="800" as="targetPoint" />
          </mxGeometry>
        </mxCell>
        <mxCell id="nzWNdacZB_GUiVWyVEk8-14" value="计算总持仓金额" style="rounded=0;whiteSpace=wrap;html=1;" vertex="1" parent="WIyWlLk6GJQsqaUBKTNV-1">
          <mxGeometry x="165" y="710" width="115" height="50" as="geometry" />
        </mxCell>
        <mxCell id="nzWNdacZB_GUiVWyVEk8-23" style="edgeStyle=orthogonalEdgeStyle;rounded=0;orthogonalLoop=1;jettySize=auto;html=1;exitX=0.5;exitY=1;exitDx=0;exitDy=0;entryX=0.5;entryY=0;entryDx=0;entryDy=0;" edge="1" parent="WIyWlLk6GJQsqaUBKTNV-1" source="nzWNdacZB_GUiVWyVEk8-18" target="nzWNdacZB_GUiVWyVEk8-19">
          <mxGeometry relative="1" as="geometry" />
        </mxCell>
        <mxCell id="nzWNdacZB_GUiVWyVEk8-18" value="获取各个资产大类的市值差总和" style="rounded=0;whiteSpace=wrap;html=1;" vertex="1" parent="WIyWlLk6GJQsqaUBKTNV-1">
          <mxGeometry x="165" y="900" width="120" height="60" as="geometry" />
        </mxCell>
        <mxCell id="nzWNdacZB_GUiVWyVEk8-24" style="edgeStyle=orthogonalEdgeStyle;rounded=0;orthogonalLoop=1;jettySize=auto;html=1;exitX=0.5;exitY=1;exitDx=0;exitDy=0;" edge="1" parent="WIyWlLk6GJQsqaUBKTNV-1" source="nzWNdacZB_GUiVWyVEk8-19">
          <mxGeometry relative="1" as="geometry">
            <mxPoint x="225" y="1090" as="targetPoint" />
          </mxGeometry>
        </mxCell>
        <mxCell id="nzWNdacZB_GUiVWyVEk8-19" value="&lt;div&gt;循环所有资产大类&lt;/div&gt;&lt;div&gt;申请金额=（申请金额*资产大类市值差）/市值差总和&lt;br&gt;&lt;/div&gt;" style="rounded=0;whiteSpace=wrap;html=1;" vertex="1" parent="WIyWlLk6GJQsqaUBKTNV-1">
          <mxGeometry x="165" y="990" width="120" height="60" as="geometry" />
        </mxCell>
        <mxCell id="nzWNdacZB_GUiVWyVEk8-21" style="edgeStyle=orthogonalEdgeStyle;rounded=0;orthogonalLoop=1;jettySize=auto;html=1;" edge="1" parent="WIyWlLk6GJQsqaUBKTNV-1" source="nzWNdacZB_GUiVWyVEk8-19" target="nzWNdacZB_GUiVWyVEk8-19">
          <mxGeometry relative="1" as="geometry" />
        </mxCell>
        <mxCell id="nzWNdacZB_GUiVWyVEk8-27" style="edgeStyle=orthogonalEdgeStyle;rounded=0;orthogonalLoop=1;jettySize=auto;html=1;entryX=0.5;entryY=0;entryDx=0;entryDy=0;" edge="1" parent="WIyWlLk6GJQsqaUBKTNV-1" source="nzWNdacZB_GUiVWyVEk8-25" target="nzWNdacZB_GUiVWyVEk8-26">
          <mxGeometry relative="1" as="geometry" />
        </mxCell>
        <mxCell id="nzWNdacZB_GUiVWyVEk8-25" value="剔除所有长期暂停的资产大类并重新配额" style="rounded=0;whiteSpace=wrap;html=1;" vertex="1" parent="WIyWlLk6GJQsqaUBKTNV-1">
          <mxGeometry x="165" y="1090" width="120" height="60" as="geometry" />
        </mxCell>
        <mxCell id="nzWNdacZB_GUiVWyVEk8-28" style="edgeStyle=orthogonalEdgeStyle;rounded=0;orthogonalLoop=1;jettySize=auto;html=1;exitX=0.5;exitY=1;exitDx=0;exitDy=0;" edge="1" parent="WIyWlLk6GJQsqaUBKTNV-1" source="nzWNdacZB_GUiVWyVEk8-26">
          <mxGeometry relative="1" as="geometry">
            <mxPoint x="225" y="1270" as="targetPoint" />
          </mxGeometry>
        </mxCell>
        <mxCell id="nzWNdacZB_GUiVWyVEk8-26" value="&lt;div&gt;获得各资产大类&lt;/div&gt;&lt;div&gt;申购上下限&lt;/div&gt;" style="rounded=0;whiteSpace=wrap;html=1;" vertex="1" parent="WIyWlLk6GJQsqaUBKTNV-1">
          <mxGeometry x="165" y="1180" width="120" height="60" as="geometry" />
        </mxCell>
        <mxCell id="nzWNdacZB_GUiVWyVEk8-31" style="edgeStyle=orthogonalEdgeStyle;rounded=0;orthogonalLoop=1;jettySize=auto;html=1;" edge="1" parent="WIyWlLk6GJQsqaUBKTNV-1" source="nzWNdacZB_GUiVWyVEk8-29">
          <mxGeometry relative="1" as="geometry">
            <mxPoint x="225" y="1360" as="targetPoint" />
          </mxGeometry>
        </mxCell>
        <mxCell id="nzWNdacZB_GUiVWyVEk8-29" value="按照资产类申购上下限，对配额顺序进行排序" style="rounded=0;whiteSpace=wrap;html=1;" vertex="1" parent="WIyWlLk6GJQsqaUBKTNV-1">
          <mxGeometry x="165" y="1270" width="120" height="60" as="geometry" />
        </mxCell>
        <mxCell id="nzWNdacZB_GUiVWyVEk8-33" style="edgeStyle=orthogonalEdgeStyle;rounded=0;orthogonalLoop=1;jettySize=auto;html=1;" edge="1" parent="WIyWlLk6GJQsqaUBKTNV-1" source="nzWNdacZB_GUiVWyVEk8-32">
          <mxGeometry relative="1" as="geometry">
            <mxPoint x="225" y="1450" as="targetPoint" />
          </mxGeometry>
        </mxCell>
        <mxCell id="nzWNdacZB_GUiVWyVEk8-32" value="验证资产大类买入金额是否满足上下限" style="rounded=0;whiteSpace=wrap;html=1;" vertex="1" parent="WIyWlLk6GJQsqaUBKTNV-1">
          <mxGeometry x="165" y="1360" width="120" height="60" as="geometry" />
        </mxCell>
        <mxCell id="nzWNdacZB_GUiVWyVEk8-35" style="edgeStyle=orthogonalEdgeStyle;rounded=0;orthogonalLoop=1;jettySize=auto;html=1;exitX=0.5;exitY=1;exitDx=0;exitDy=0;" edge="1" parent="WIyWlLk6GJQsqaUBKTNV-1" source="nzWNdacZB_GUiVWyVEk8-34">
          <mxGeometry relative="1" as="geometry">
            <mxPoint x="223" y="1540" as="targetPoint" />
          </mxGeometry>
        </mxCell>
        <mxCell id="nzWNdacZB_GUiVWyVEk8-34" value="对资产大类的成分基金购买的优先级排序" style="rounded=0;whiteSpace=wrap;html=1;" vertex="1" parent="WIyWlLk6GJQsqaUBKTNV-1">
          <mxGeometry x="162.5" y="1450" width="120" height="60" as="geometry" />
        </mxCell>
        <mxCell id="nzWNdacZB_GUiVWyVEk8-61" style="edgeStyle=orthogonalEdgeStyle;rounded=0;orthogonalLoop=1;jettySize=auto;html=1;exitX=0.5;exitY=1;exitDx=0;exitDy=0;" edge="1" parent="WIyWlLk6GJQsqaUBKTNV-1" source="nzWNdacZB_GUiVWyVEk8-36" target="nzWNdacZB_GUiVWyVEk8-60">
          <mxGeometry relative="1" as="geometry" />
        </mxCell>
        <mxCell id="nzWNdacZB_GUiVWyVEk8-36" value="配额" style="rounded=0;whiteSpace=wrap;html=1;" vertex="1" parent="WIyWlLk6GJQsqaUBKTNV-1">
          <mxGeometry x="165" y="1540" width="120" height="60" as="geometry" />
        </mxCell>
        <mxCell id="nzWNdacZB_GUiVWyVEk8-39" value="是" style="text;html=1;strokeColor=none;fillColor=none;align=center;verticalAlign=middle;whiteSpace=wrap;rounded=0;" vertex="1" parent="WIyWlLk6GJQsqaUBKTNV-1">
          <mxGeometry x="210" y="320" width="40" height="20" as="geometry" />
        </mxCell>
        <mxCell id="nzWNdacZB_GUiVWyVEk8-40" value="否" style="text;html=1;strokeColor=none;fillColor=none;align=center;verticalAlign=middle;whiteSpace=wrap;rounded=0;" vertex="1" parent="WIyWlLk6GJQsqaUBKTNV-1">
          <mxGeometry x="210" y="450" width="40" height="20" as="geometry" />
        </mxCell>
        <mxCell id="nzWNdacZB_GUiVWyVEk8-42" value="是" style="text;html=1;strokeColor=none;fillColor=none;align=center;verticalAlign=middle;whiteSpace=wrap;rounded=0;" vertex="1" parent="WIyWlLk6GJQsqaUBKTNV-1">
          <mxGeometry x="310" y="510" width="40" height="20" as="geometry" />
        </mxCell>
        <mxCell id="nzWNdacZB_GUiVWyVEk8-46" value="否" style="text;html=1;strokeColor=none;fillColor=none;align=center;verticalAlign=middle;whiteSpace=wrap;rounded=0;" vertex="1" parent="WIyWlLk6GJQsqaUBKTNV-1">
          <mxGeometry x="220" y="585" width="40" height="20" as="geometry" />
        </mxCell>
        <mxCell id="nzWNdacZB_GUiVWyVEk8-49" value="否" style="text;html=1;strokeColor=none;fillColor=none;align=center;verticalAlign=middle;whiteSpace=wrap;rounded=0;" vertex="1" parent="WIyWlLk6GJQsqaUBKTNV-1">
          <mxGeometry x="310" y="240" width="40" height="20" as="geometry" />
        </mxCell>
        <mxCell id="nzWNdacZB_GUiVWyVEk8-50" value="是" style="text;html=1;strokeColor=none;fillColor=none;align=center;verticalAlign=middle;whiteSpace=wrap;rounded=0;" vertex="1" parent="WIyWlLk6GJQsqaUBKTNV-1">
          <mxGeometry x="310" y="380" width="40" height="20" as="geometry" />
        </mxCell>
        <mxCell id="nzWNdacZB_GUiVWyVEk8-52" value="" style="endArrow=classic;html=1;" edge="1" parent="WIyWlLk6GJQsqaUBKTNV-1">
          <mxGeometry width="50" height="50" relative="1" as="geometry">
            <mxPoint x="400" y="260" as="sourcePoint" />
            <mxPoint x="400" y="620" as="targetPoint" />
          </mxGeometry>
        </mxCell>
        <mxCell id="nzWNdacZB_GUiVWyVEk8-55" style="edgeStyle=orthogonalEdgeStyle;rounded=0;orthogonalLoop=1;jettySize=auto;html=1;" edge="1" parent="WIyWlLk6GJQsqaUBKTNV-1" source="nzWNdacZB_GUiVWyVEk8-54">
          <mxGeometry relative="1" as="geometry">
            <mxPoint x="414" y="730" as="targetPoint" />
          </mxGeometry>
        </mxCell>
        <mxCell id="nzWNdacZB_GUiVWyVEk8-54" value="&lt;div&gt;标记资产大类&lt;/div&gt;&lt;div&gt;是否可以配额&lt;/div&gt;" style="rounded=0;whiteSpace=wrap;html=1;" vertex="1" parent="WIyWlLk6GJQsqaUBKTNV-1">
          <mxGeometry x="354" y="620" width="120" height="60" as="geometry" />
        </mxCell>
        <mxCell id="nzWNdacZB_GUiVWyVEk8-57" style="edgeStyle=orthogonalEdgeStyle;rounded=0;orthogonalLoop=1;jettySize=auto;html=1;" edge="1" parent="WIyWlLk6GJQsqaUBKTNV-1" source="nzWNdacZB_GUiVWyVEk8-56">
          <mxGeometry relative="1" as="geometry">
            <mxPoint x="410" y="840" as="targetPoint" />
          </mxGeometry>
        </mxCell>
        <mxCell id="nzWNdacZB_GUiVWyVEk8-56" value="获取可以配额的资产大类" style="rounded=0;whiteSpace=wrap;html=1;" vertex="1" parent="WIyWlLk6GJQsqaUBKTNV-1">
          <mxGeometry x="350" y="730" width="120" height="60" as="geometry" />
        </mxCell>
        <mxCell id="nzWNdacZB_GUiVWyVEk8-59" style="edgeStyle=orthogonalEdgeStyle;rounded=0;orthogonalLoop=1;jettySize=auto;html=1;" edge="1" parent="WIyWlLk6GJQsqaUBKTNV-1" source="nzWNdacZB_GUiVWyVEk8-58">
          <mxGeometry relative="1" as="geometry">
            <mxPoint x="490" y="890" as="targetPoint" />
          </mxGeometry>
        </mxCell>
        <mxCell id="nzWNdacZB_GUiVWyVEk8-65" style="edgeStyle=orthogonalEdgeStyle;rounded=0;orthogonalLoop=1;jettySize=auto;html=1;entryX=0.5;entryY=0;entryDx=0;entryDy=0;" edge="1" parent="WIyWlLk6GJQsqaUBKTNV-1" source="nzWNdacZB_GUiVWyVEk8-58" target="nzWNdacZB_GUiVWyVEk8-60">
          <mxGeometry relative="1" as="geometry">
            <Array as="points">
              <mxPoint x="420" y="1640" />
              <mxPoint x="300" y="1640" />
            </Array>
          </mxGeometry>
        </mxCell>
        <mxCell id="nzWNdacZB_GUiVWyVEk8-58" value="循环所有的资产大类根据资产大类的比例进行分配" style="rounded=0;whiteSpace=wrap;html=1;" vertex="1" parent="WIyWlLk6GJQsqaUBKTNV-1">
          <mxGeometry x="360" y="840" width="120" height="60" as="geometry" />
        </mxCell>
        <mxCell id="nzWNdacZB_GUiVWyVEk8-60" value="结束" style="rounded=1;whiteSpace=wrap;html=1;" vertex="1" parent="WIyWlLk6GJQsqaUBKTNV-1">
          <mxGeometry x="240" y="1680" width="120" height="60" as="geometry" />
        </mxCell>
      </root>
    </mxGraphModel>
  </diagram>
</mxfile>
